<?xml version="1.0" standalone="no"?>
<!DOCTYPE svg PUBLIC "-//W3C//DTD SVG 20010904//EN"
 "http://www.w3.org/TR/2001/REC-SVG-20010904/DTD/svg10.dtd">
<svg version="1.0" xmlns="http://www.w3.org/2000/svg"
 width="256.000000pt" height="256.000000pt" viewBox="0 0 256.000000 256.000000"
 preserveAspectRatio="xMidYMid meet">
<metadata>
Created by potrace 1.10, written by Peter Selinger 2001-2011
</metadata>
<g transform="translate(0.000000,256.000000) scale(0.100000,-0.100000)"
fill="#000000" stroke="none">
<path d="M855 2553 c22 -3 44 -9 50 -14 5 -5 18 -9 30 -9 20 1 20 1 1 15 -12
9 -39 14 -70 13 -47 -1 -48 -2 -11 -5z"/>
<path d="M997 2553 c-2 -5 -4 -20 -5 -34 -1 -20 7 -30 38 -48 22 -12 40 -18
40 -12 0 5 -7 14 -15 19 -9 4 -18 21 -21 37 -3 16 -7 32 -10 37 -6 10 -22 10
-27 1z"/>
<path d="M1918 2521 c-3 -34 -2 -37 14 -27 22 13 25 66 4 66 -9 0 -15 -14 -18
-39z"/>
<path d="M2547 2501 c-2 -22 -1 -54 3 -73 6 -27 8 -19 9 40 1 80 -4 93 -12 33z"/>
<path d="M1254 2309 c1 -24 5 -49 9 -56 4 -6 4 -14 -1 -17 -5 -3 -7 -24 -6
-47 2 -45 17 -69 29 -48 5 7 4 10 -2 6 -6 -4 -13 0 -17 8 -8 21 14 19 38 -4
12 -11 33 -22 48 -25 14 -2 52 -20 82 -40 37 -23 56 -31 56 -22 0 7 -13 19
-30 26 -16 7 -27 17 -23 23 3 6 1 7 -5 3 -6 -4 -23 1 -37 10 -14 9 -28 14 -32
10 -8 -8 -43 23 -43 39 0 7 -7 18 -15 25 -10 8 -15 30 -15 61 0 56 7 60 95 54
241 -15 357 -17 353 -4 -3 10 -40 14 -149 16 -79 1 -164 5 -189 8 -25 3 -68 8
-96 11 l-52 6 2 -43z"/>
<path d="M376 2274 c-10 -76 -7 -294 4 -294 6 0 10 63 10 170 0 94 -2 170 -4
170 -2 0 -6 -21 -10 -46z"/>
<path d="M1848 2315 c-6 -6 9 -95 17 -103 3 -3 5 20 5 51 0 51 -7 67 -22 52z"/>
<path d="M1950 2128 c0 -29 18 -44 65 -52 l28 -5 -21 19 c-12 11 -24 20 -27
20 -4 0 -15 10 -26 23 l-18 22 -1 -27z"/>
<path d="M1165 2131 c-11 -5 -26 -6 -33 -3 -7 2 -24 -1 -37 -8 -22 -12 -23
-14 -8 -25 21 -15 67 -7 54 9 -10 12 3 15 74 16 26 1 27 2 10 10 -25 11 -34
11 -60 1z"/>
<path d="M1858 2128 c5 -7 12 -89 15 -183 3 -93 8 -178 13 -189 7 -17 8 -17
20 5 13 24 12 61 -7 224 -15 142 -18 155 -36 155 -11 0 -13 -3 -5 -12z"/>
<path d="M2283 2133 c-7 -2 -13 -14 -13 -26 0 -18 -2 -19 -11 -7 -7 11 -8 2
-2 -30 4 -25 6 -64 5 -87 -2 -33 1 -43 13 -43 8 0 15 8 15 18 0 9 2 54 5 100
3 45 4 82 2 81 -1 0 -8 -3 -14 -6z"/>
<path d="M508 2120 c-7 -23 8 -124 20 -128 7 -2 10 2 6 11 -6 18 14 98 24 94
7 -2 12 6 12 23 0 13 -57 13 -62 0z"/>
<path d="M600 2110 c-13 -8 -13 -10 2 -10 9 0 24 -7 32 -16 9 -8 16 -11 16 -5
0 19 49 12 62 -9 15 -24 28 -26 28 -5 0 11 8 14 33 10 17 -3 71 -6 118 -7 48
-2 85 -6 83 -10 -2 -4 0 -9 6 -13 5 -3 10 -1 10 4 0 6 3 10 8 10 4 -1 10 0 15
1 4 1 12 3 19 4 6 0 13 7 16 14 3 10 -10 13 -54 12 -33 -1 -67 1 -77 5 -9 4
-23 2 -30 -4 -10 -7 -19 -7 -33 2 -23 16 -114 21 -114 7 0 -6 -5 -10 -11 -10
-5 0 -7 5 -4 10 4 7 -7 10 -32 10 -21 -1 -47 1 -58 4 -11 4 -27 2 -35 -4z"/>
<path d="M1305 2106 c11 -7 25 -14 30 -15 6 -1 13 -11 17 -22 4 -11 12 -17 18
-14 6 3 13 -1 16 -10 6 -13 8 -14 15 -3 6 9 9 7 9 -9 0 -13 4 -23 8 -23 5 0
14 -10 21 -22 6 -13 9 -15 7 -5 -4 11 0 17 10 17 8 0 12 5 9 10 -3 6 -1 10 5
10 6 0 8 5 5 10 -9 15 -25 12 -25 -5 0 -8 -4 -15 -10 -15 -5 0 -10 8 -10 18 0
11 -9 27 -20 37 -20 18 -21 18 -14 -1 5 -14 0 -12 -19 9 -15 15 -31 26 -36 23
-5 -3 -14 1 -21 9 -7 8 -17 15 -23 15 -6 0 -3 -6 8 -14z"/>
<path d="M2357 2024 c-3 -4 1 -13 9 -21 8 -9 18 -13 21 -9 4 3 3 6 -2 6 -4 0
-2 7 5 15 10 12 9 15 -7 15 -11 0 -22 -3 -26 -6z"/>
<path d="M1500 2008 c0 -9 5 -18 11 -20 8 -3 9 -15 4 -36 -6 -29 -9 -31 -23
-20 -9 8 -13 8 -9 2 5 -8 -4 -12 -28 -12 -19 0 -35 4 -35 10 0 5 -5 6 -12 2
-7 -5 -31 -7 -53 -6 -30 2 -36 0 -25 -7 8 -6 29 -11 47 -11 17 0 35 -4 38 -10
3 -5 21 -10 39 -10 39 0 43 -8 56 -110 5 -36 11 -76 14 -90 3 -14 8 -47 12
-75 l6 -50 15 40 c8 22 15 46 15 53 1 6 6 12 11 12 6 0 8 3 4 6 -3 4 0 19 8
34 9 17 13 45 10 70 -4 41 -15 69 -15 38 0 -9 -7 -19 -16 -22 -8 -3 -12 -2 -9
4 3 6 1 10 -4 10 -6 0 -11 -6 -11 -14 0 -22 11 -46 21 -46 4 0 5 7 2 17 -4 11
-3 14 5 9 7 -4 12 -18 12 -32 0 -17 -4 -23 -12 -18 -8 5 -9 2 -5 -9 4 -12 1
-17 -9 -17 -11 0 -14 6 -10 16 3 8 2 13 -3 9 -9 -5 -20 32 -19 65 0 8 -3 46
-6 83 -3 44 -2 65 5 61 13 -8 0 45 -17 71 -12 16 -14 17 -14 3z"/>
<path d="M1560 1958 c0 -6 -7 -19 -15 -28 -13 -15 -13 -19 1 -36 8 -10 13 -14
9 -7 -7 14 25 54 37 47 15 -10 8 1 -12 19 -12 10 -20 12 -20 5z"/>
<path d="M917 1893 c-3 -5 -8 -27 -12 -50 -5 -31 -3 -43 5 -43 7 0 10 6 7 14
-3 7 -2 30 3 50 8 34 6 45 -3 29z"/>
<path d="M435 1846 c11 -8 23 -12 27 -10 5 3 8 0 8 -6 0 -7 6 -8 19 0 11 5 32
11 48 11 33 2 -44 17 -91 18 -28 1 -29 0 -11 -13z"/>
<path d="M214 1794 c5 -13 2 -15 -15 -11 -11 3 -27 3 -35 0 -11 -4 -11 -8 2
-21 12 -12 18 -12 23 -3 5 7 16 11 26 9 13 -2 19 4 20 20 1 13 -4 22 -13 22
-9 0 -12 -6 -8 -16z"/>
<path d="M1767 1792 c-2 -11 -1 -26 4 -33 7 -12 11 -11 23 1 12 13 12 17 -4
33 -17 17 -18 17 -23 -1z"/>
<path d="M486 1775 c9 -38 9 -38 23 -22 8 11 6 18 -10 33 -20 18 -20 18 -13
-11z"/>
<path d="M2093 1756 c-13 -6 -23 -19 -23 -28 0 -23 4 -23 34 6 39 35 34 45
-11 22z"/>
<path d="M2140 1761 c0 -6 9 -11 21 -11 33 0 43 -16 86 -138 9 -23 17 -41 20
-39 11 12 12 57 1 69 -7 7 -14 22 -16 33 -10 72 -16 95 -24 95 -6 0 -8 -9 -5
-20 4 -17 3 -18 -17 -6 -32 21 -66 29 -66 17z"/>
<path d="M986 1679 c-9 -39 -16 -80 -16 -90 0 -11 -4 -19 -8 -19 -4 0 -9 -10
-9 -22 -2 -17 0 -19 6 -9 5 8 16 11 24 8 12 -4 15 6 15 57 0 34 3 81 7 104 10
66 -1 49 -19 -29z"/>
<path d="M396 1719 c3 -5 -2 -9 -11 -9 -9 0 -13 -4 -10 -10 3 -6 -4 -10 -17
-11 -13 0 -17 -3 -10 -6 6 -2 10 -9 6 -14 -3 -5 6 -9 20 -9 14 0 28 5 31 10 4
6 11 7 17 4 7 -5 8 -2 3 6 -4 7 -3 15 3 19 6 3 0 11 -14 18 -13 6 -22 7 -18 2z"/>
<path d="M1113 1719 c-44 -13 -41 -17 10 -17 33 1 49 -5 71 -25 31 -29 28 -34
-6 -16 -16 9 -23 8 -29 -2 -5 -9 -9 -9 -9 -3 0 13 -47 25 -67 17 -7 -3 -13
-13 -13 -22 0 -14 2 -14 10 -1 8 12 10 9 10 -11 0 -37 40 -54 83 -34 l32 14
-40 -4 c-22 -3 -45 -1 -51 3 -15 10 -13 51 3 45 7 -3 13 -9 13 -14 0 -5 9 -9
20 -9 11 0 20 5 20 10 0 7 6 7 19 0 11 -5 27 -7 35 -4 9 3 16 1 16 -5 0 -6 -4
-11 -10 -11 -5 0 -10 -4 -10 -10 0 -14 19 -12 34 3 14 14 17 47 4 47 -4 0 -8
8 -8 19 0 14 -12 22 -44 30 -51 12 -50 12 -93 0z"/>
<path d="M1364 1710 c-12 -5 -24 -16 -28 -26 -5 -14 -4 -15 9 -4 12 10 18 11
28 1 9 -10 9 -11 -4 -6 -10 4 -19 -3 -27 -20 -10 -22 -9 -27 13 -41 28 -18 84
-33 103 -27 20 7 14 26 -8 20 -29 -7 -100 13 -100 29 0 8 5 14 11 14 5 0 7 -4
4 -10 -3 -5 -1 -10 4 -10 6 0 11 6 11 13 0 25 41 49 76 45 27 -3 32 -1 22 8
-17 15 -87 24 -114 14z"/>
<path d="M510 1649 c0 -22 -4 -38 -9 -35 -5 3 -15 -9 -22 -27 -7 -17 -17 -35
-22 -39 -15 -9 -13 -191 1 -196 15 -5 16 -68 2 -77 -15 -9 -12 -45 4 -45 20 0
32 98 17 143 -15 44 -12 132 5 173 7 17 10 34 7 38 -4 3 1 12 10 19 19 15 35
87 18 87 -6 0 -11 -17 -11 -41z"/>
<path d="M100 1650 c0 -17 3 -19 19 -10 11 5 31 10 46 10 15 0 24 4 20 10 -3
6 -24 10 -46 10 -33 0 -39 -3 -39 -20z"/>
<path d="M2109 1660 c-5 -28 -2 -33 15 -36 31 -4 39 6 20 27 -19 21 -33 25
-35 9z"/>
<path d="M1401 1651 c-16 -11 -6 -31 16 -31 9 0 13 6 9 15 -5 13 -2 14 15 4
11 -6 23 -8 26 -5 3 3 -6 10 -21 16 -32 12 -28 12 -45 1z"/>
<path d="M2481 1621 c-7 -13 -18 -17 -36 -13 -20 3 -24 1 -19 -12 3 -9 11 -13
18 -9 6 4 22 9 36 11 26 3 42 20 34 34 -9 14 -23 9 -33 -11z"/>
<path d="M1565 1570 c0 -28 4 -40 15 -40 9 0 7 -5 -8 -16 -12 -8 -22 -26 -22
-38 0 -13 -10 -35 -21 -50 -21 -26 -21 -28 -3 -42 11 -8 30 -21 44 -28 14 -8
35 -28 47 -44 16 -22 34 -32 64 -37 63 -11 104 -31 138 -67 39 -42 41 -61 3
-24 -27 25 -30 26 -43 9 -8 -10 -9 -14 -2 -10 7 5 21 -1 32 -12 12 -12 42 -26
68 -32 27 -7 60 -18 74 -25 28 -14 119 -102 119 -115 0 -4 9 -11 20 -14 24 -8
54 -61 46 -81 -3 -8 -2 -14 3 -14 4 0 18 -20 31 -45 13 -25 26 -43 29 -40 12
12 5 51 -11 67 -9 9 -20 34 -24 55 -5 29 -21 52 -68 97 -33 33 -54 55 -46 50
11 -6 10 -3 -2 7 -9 9 -14 20 -10 24 4 5 1 5 -6 1 -8 -5 -24 5 -44 26 -17 18
-28 27 -24 21 10 -18 0 -16 -31 5 -15 9 -24 11 -20 5 13 -21 -10 -15 -36 10
-21 20 -39 49 -41 69 -1 4 -7 13 -15 20 -10 10 -12 10 -7 1 4 -7 3 -13 -3 -13
-5 0 -11 3 -13 8 -1 4 -35 17 -75 30 -40 13 -75 28 -79 34 -5 7 -2 8 7 3 12
-8 12 -6 0 8 -7 9 -17 15 -21 12 -5 -3 -18 6 -29 21 -11 14 -24 23 -29 20 -7
-4 -9 38 -2 54 1 3 2 8 1 13 -1 4 5 22 12 40 8 17 12 37 10 43 -2 7 8 9 28 6
22 -3 30 -1 25 7 -4 6 -13 11 -21 11 -8 0 -25 11 -38 25 l-23 25 1 -40z"/>
<path d="M2382 1567 c-14 -39 -16 -77 -3 -77 7 0 23 100 17 107 -1 1 -8 -12
-14 -30z"/>
<path d="M1210 1551 c-6 -16 -9 -39 -5 -51 6 -19 12 -21 40 -16 20 4 36 2 40
-4 5 -8 11 -8 20 0 8 7 23 9 34 5 24 -7 37 11 19 29 -11 10 -16 10 -25 1 -8
-8 -28 -11 -59 -7 -34 3 -45 2 -40 -6 5 -8 2 -10 -8 -6 -20 8 -20 33 0 55 9
10 11 20 6 23 -5 3 -15 -7 -22 -23z"/>
<path d="M1655 1539 c0 -18 6 -34 13 -37 9 -3 11 3 6 24 -5 20 -4 25 6 19 8
-5 11 -3 8 6 -3 8 -11 15 -19 17 -10 2 -15 -7 -14 -29z"/>
<path d="M1928 1529 c3 -27 8 -37 14 -31 11 11 1 72 -11 72 -3 0 -5 -18 -3
-41z"/>
<path d="M2260 1535 c0 -11 -7 -33 -15 -48 -8 -15 -10 -25 -5 -22 6 4 10 1 10
-4 0 -6 7 -11 15 -11 9 0 12 6 8 16 -3 9 -1 19 4 23 6 4 5 17 -3 36 -10 23
-13 25 -14 10z"/>
<path d="M150 1503 c0 -5 9 -17 21 -26 20 -18 20 -17 17 5 -3 21 -38 40 -38
21z"/>
<path d="M2520 1471 c0 -5 -9 -13 -20 -16 -21 -7 -28 -25 -10 -25 19 0 52 37
41 45 -6 3 -11 2 -11 -4z"/>
<path d="M28 1462 c-11 -2 -18 -13 -18 -28 0 -32 14 -31 29 2 13 30 13 32 -11
26z"/>
<path d="M1720 1463 c0 -5 13 -17 29 -28 16 -10 28 -22 26 -25 -2 -3 0 -12 6
-20 6 -11 9 -6 9 17 0 26 -6 36 -30 48 -33 17 -40 18 -40 8z"/>
<path d="M260 1440 c-8 -5 -10 -10 -4 -10 7 0 15 -10 19 -22 l8 -23 4 24 c6
29 -7 43 -27 31z"/>
<path d="M1137 1426 c-7 -17 55 -28 168 -31 39 -1 81 -5 94 -9 15 -5 21 -5 17
2 -3 6 0 12 6 15 9 3 10 8 3 15 -14 13 -56 26 -54 15 4 -20 -2 -24 -18 -12
-10 8 -14 9 -10 2 11 -18 -46 -21 -60 -3 -9 10 -15 12 -20 4 -12 -16 -70 -15
-84 2 -15 18 -35 18 -42 0z"/>
<path d="M83 1405 c-20 -22 -18 -49 5 -83 16 -21 22 -43 20 -64 -4 -40 -25
-47 -57 -19 -13 12 -27 18 -32 16 -4 -3 -6 4 -4 15 2 11 0 20 -6 20 -5 0 -9
-14 -9 -31 0 -17 4 -28 10 -24 5 3 10 3 10 -2 0 -14 60 -43 89 -43 26 0 61
-26 61 -46 0 -5 9 -20 20 -34 24 -30 26 -98 5 -155 -17 -47 -18 -65 -6 -65 10
0 19 22 27 67 3 15 8 30 12 33 8 5 7 18 -6 92 -10 52 -20 69 -69 113 -29 27
-32 33 -24 60 5 17 10 26 10 20 1 -11 21 15 21 29 0 4 -9 6 -20 3 -18 -5 -25
3 -21 26 0 4 -3 7 -7 7 -4 0 -9 17 -10 37 -3 44 -4 45 -19 28z"/>
<path d="M1964 1405 c-4 -9 -2 -30 3 -48 l10 -32 4 43 c5 44 -6 67 -17 37z"/>
<path d="M2324 1400 c-24 -9 -39 -28 -31 -37 3 -3 25 4 49 15 24 11 50 22 58
25 8 3 -1 5 -20 6 -19 0 -45 -4 -56 -9z"/>
<path d="M940 1395 c0 -12 -64 -48 -85 -48 -8 0 -12 -4 -9 -9 3 -4 0 -8 -6 -8
-6 0 -9 -4 -6 -8 3 -5 -8 -9 -23 -10 -17 0 -40 -12 -55 -27 -15 -15 -31 -23
-39 -19 -9 5 -9 4 0 -6 10 -10 20 -9 57 9 25 11 49 21 53 21 4 0 16 9 28 20
12 12 48 34 80 49 31 16 53 31 47 35 -6 3 -14 1 -18 -5 -4 -8 -9 -7 -15 2 -5
8 -9 9 -9 4z"/>
<path d="M1221 1363 c29 -36 57 -42 104 -21 28 12 35 35 8 23 -35 -15 -70 -17
-84 -3 -8 7 -21 14 -28 16 -12 3 -12 0 0 -15z"/>
<path d="M1482 1341 c-12 -22 -18 -41 -16 -44 3 -3 -13 -35 -36 -72 -22 -38
-38 -71 -34 -74 4 -3 9 0 12 8 4 11 6 11 14 0 7 -11 8 -11 6 1 -1 8 8 40 22
70 19 44 25 51 28 32 2 -12 -6 -43 -18 -67 -17 -35 -19 -48 -10 -64 6 -12 16
-21 23 -21 7 0 6 4 -3 10 -12 8 -8 10 15 11 24 1 25 3 8 6 -24 5 -30 18 -13
28 6 3 10 24 10 45 0 76 44 59 55 -20 4 -28 11 -52 16 -56 5 -3 9 0 9 7 0 8 3
9 13 0 8 -6 17 -8 20 -4 11 10 8 33 -4 33 -5 0 -7 -6 -3 -12 4 -7 -3 -3 -15 9
-11 12 -21 33 -21 47 0 14 -4 28 -10 31 -16 10 -11 25 8 25 27 0 62 -28 56
-45 -4 -8 -1 -15 5 -15 17 0 13 56 -5 71 -12 10 -24 10 -65 0 -28 -7 -53 -11
-56 -8 -9 9 6 57 18 57 6 0 9 -6 6 -14 -7 -19 10 -24 53 -15 l35 8 -37 -3
c-34 -2 -36 0 -23 14 13 15 12 19 -14 38 l-29 21 -20 -38z"/>
<path d="M975 1360 c-3 -5 -14 -10 -24 -10 -11 0 -29 -9 -42 -20 l-24 -19 33
4 c17 2 32 -1 32 -6 0 -6 7 -4 15 3 42 38 45 39 45 23 0 -8 -5 -15 -11 -15 -5
0 -8 -4 -4 -9 3 -5 -5 -18 -18 -28 -22 -17 -24 -26 -24 -118 -1 -55 -4 -109
-9 -119 -7 -17 -5 -17 14 2 16 16 20 27 14 40 -14 26 -5 148 13 182 21 40 28
38 23 -7 -3 -25 2 -49 14 -71 10 -18 18 -39 18 -47 0 -8 5 -15 10 -15 13 0 13
6 -1 32 -14 25 -30 120 -29 171 1 30 -3 37 -19 37 -11 0 -23 -4 -26 -10z"/>
<path d="M1431 1304 c-1 -12 -54 -38 -83 -40 -10 -1 -22 -2 -27 -3 -14 -2 -41
-31 -41 -44 0 -7 4 -6 10 3 7 10 13 11 18 5 8 -12 62 -14 62 -2 0 4 6 7 13 8
17 0 60 57 54 72 -4 7 -6 8 -6 1z"/>
<path d="M877 1273 c-10 -10 -17 -12 -17 -5 0 6 -7 9 -15 6 -22 -9 -8 -24 23
-24 21 0 28 5 28 20 0 11 -1 20 -1 20 0 0 -8 -8 -18 -17z"/>
<path d="M1145 1281 c-7 -13 2 -17 51 -26 26 -4 44 -2 49 4 4 7 -10 11 -40 11
-28 0 -44 4 -40 10 3 6 2 10 -4 10 -5 0 -12 -4 -16 -9z"/>
<path d="M1661 1237 c15 -32 80 -53 109 -35 11 7 20 16 20 20 0 10 -42 22 -73
20 -15 -2 -36 2 -47 8 -18 10 -19 9 -9 -13z"/>
<path d="M680 1239 c0 -6 -4 -8 -8 -5 -11 6 -72 -31 -72 -43 0 -6 24 2 53 16
64 32 61 29 42 36 -8 4 -15 2 -15 -4z"/>
<path d="M237 1232 c-32 -7 -6 -22 38 -22 24 0 47 -5 50 -10 4 -6 11 -8 16 -4
15 9 -7 31 -36 37 -14 2 -25 0 -25 -6 0 -6 -5 -6 -12 0 -7 5 -21 8 -31 5z"/>
<path d="M709 1199 c14 -5 31 -7 38 -5 7 3 13 1 13 -4 0 -12 0 -12 -67 -14
-51 -2 -81 -14 -55 -23 6 -3 12 -14 12 -26 0 -12 9 -28 20 -35 11 -7 20 -8 20
-3 0 6 -4 13 -10 16 -18 11 -11 32 16 43 14 7 23 8 20 3 -4 -5 -3 -11 1 -14 5
-2 2 -2 -4 -1 -15 4 -18 -32 -4 -40 5 -3 12 1 15 10 5 13 9 14 21 4 20 -17 22
-14 26 44 l4 50 -45 2 c-38 2 -41 1 -21 -7z"/>
<path d="M1640 1173 c0 -28 3 -34 10 -23 13 20 13 60 0 60 -5 0 -10 -17 -10
-37z"/>
<path d="M999 1195 c-1 -3 -2 -9 -3 -14 0 -5 -4 -13 -8 -17 -5 -4 -8 -12 -8
-18 0 -6 4 -4 10 4 10 17 9 18 30 -63 12 -45 12 -49 -11 -73 -16 -17 -19 -24
-9 -22 8 2 19 9 25 16 8 10 14 8 27 -7 9 -11 14 -21 12 -24 -2 -2 2 -10 10
-16 19 -16 31 3 13 21 -7 7 -18 25 -24 40 -10 22 -10 27 0 25 6 -1 11 6 9 15
-2 12 4 16 18 15 11 -1 20 -7 20 -15 0 -7 5 -10 10 -7 17 11 -9 35 -37 35 -13
0 -22 4 -18 9 3 5 0 13 -6 17 -7 4 -9 3 -6 -3 4 -6 0 -13 -8 -17 -8 -3 -15 -1
-15 4 0 5 -5 21 -12 37 -6 15 -10 36 -9 46 2 15 -7 25 -10 12z"/>
<path d="M912 1170 c-14 -24 -28 -25 -64 -6 -15 8 -30 11 -33 6 -3 -5 -12 -7
-20 -3 -8 3 -15 1 -15 -5 0 -5 7 -12 15 -16 8 -3 15 -1 15 5 0 11 43 2 82 -17
25 -13 27 -13 33 17 8 37 3 45 -13 19z"/>
<path d="M1674 1168 c-4 -7 -4 -10 1 -6 5 5 14 -1 22 -12 8 -11 21 -20 29 -20
23 0 16 14 -15 33 -23 14 -31 15 -37 5z"/>
<path d="M38 1121 c-27 -28 -34 -40 -24 -44 12 -5 86 60 86 76 0 18 -28 3 -62
-32z"/>
<path d="M1800 1140 c0 -6 5 -10 10 -10 6 0 10 -4 10 -10 0 -14 -34 -12 -48 2
-10 10 -15 10 -22 -2 -5 -8 -9 -19 -9 -25 0 -5 3 -4 6 3 2 6 11 12 20 12 22 0
9 -25 -15 -28 -15 -2 -22 2 -22 12 0 9 -4 16 -9 16 -15 0 -18 -66 -5 -102 7
-18 13 -26 14 -18 1 8 8 1 15 -16 15 -33 45 -64 45 -46 0 6 -4 14 -10 17 -20
12 -10 24 13 16 12 -5 32 -5 43 0 19 7 24 2 37 -34 36 -97 40 -149 18 -237
-21 -82 -28 -195 -13 -203 4 -3 8 5 8 18 2 30 41 85 59 85 8 0 18 6 22 13 4 8
26 26 48 40 29 20 41 23 47 14 5 -8 8 -7 8 5 0 22 52 58 58 40 3 -9 8 -8 19 4
14 13 17 13 34 -2 11 -9 19 -12 19 -6 0 6 -4 13 -10 17 -5 3 -7 12 -4 19 3 8
-6 26 -20 41 -27 29 -33 27 -16 -6 9 -16 7 -19 -10 -19 -12 0 -19 -4 -16 -9 3
-5 -10 -16 -29 -25 -19 -9 -35 -21 -35 -26 0 -5 -7 -7 -15 -4 -8 4 -15 1 -15
-5 0 -6 -6 -11 -14 -11 -7 0 -23 -13 -36 -30 -13 -16 -28 -30 -34 -30 -6 0
-20 -11 -30 -25 -22 -29 -36 -32 -36 -8 0 29 33 123 50 141 8 9 28 34 44 54
15 21 32 35 37 32 5 -3 12 3 16 12 6 16 7 16 14 -2 6 -15 8 -13 8 11 1 23 4
27 11 15 8 -13 10 -13 10 2 0 11 6 16 19 13 15 -3 18 0 14 12 -5 12 -2 15 9
10 12 -4 14 -1 11 14 -3 11 -11 18 -18 15 -14 -5 -46 29 -37 40 4 4 1 4 -6 0
-11 -6 -10 -12 4 -27 17 -19 16 -21 -32 -67 -27 -26 -61 -63 -76 -82 -17 -21
-28 -29 -28 -20 0 9 6 22 13 29 6 8 7 11 1 8 -8 -5 -11 15 -10 63 1 55 4 70
16 71 10 0 11 2 3 6 -7 2 -13 20 -13 38 0 45 -9 65 -28 65 -12 0 -13 -3 -4
-12 17 -17 16 -78 -2 -78 -18 0 -25 30 -19 76 4 32 3 36 -12 30 -16 -6 -16 -4
-4 11 7 10 10 15 5 11 -10 -9 -46 34 -46 55 0 8 -7 17 -15 21 -8 3 -15 1 -15
-4z m16 -82 c39 -33 45 -42 42 -62 -4 -31 -62 -35 -93 -6 -38 35 -38 58 -2 69
18 5 33 10 35 10 2 1 10 -5 18 -11z"/>
<path d="M1836 1015 c6 -16 5 -18 -7 -7 -17 16 -39 15 -39 -2 0 -21 32 -29 49
-11 12 12 13 17 2 27 -10 11 -11 9 -5 -7z"/>
<path d="M1384 1125 c-14 -11 -15 -14 -4 -15 29 0 -7 -22 -41 -23 -18 -1 -34
-8 -37 -15 -2 -7 2 -10 12 -6 12 5 16 -1 17 -22 1 -17 3 -22 6 -11 2 9 9 17
15 17 5 0 7 7 4 16 -5 12 0 14 27 10 68 -10 162 -15 132 -7 -16 5 -49 9 -72
10 -41 1 -42 2 -33 26 11 30 -1 39 -26 20z"/>
<path d="M862 1091 c-13 -41 -16 -78 -6 -68 3 3 9 20 14 39 4 18 11 41 15 51
4 9 3 17 -2 17 -6 0 -15 -17 -21 -39z"/>
<path d="M1680 1117 c0 -8 -17 -19 -39 -25 -46 -14 -54 -15 -47 -3 3 5 -1 14
-9 21 -10 9 -15 9 -15 1 0 -6 5 -11 10 -11 6 0 9 -6 8 -12 -3 -14 21 -14 79
-2 32 6 55 44 27 44 -8 0 -14 -6 -14 -13z"/>
<path d="M102 1098 c-13 -16 -23 -88 -12 -88 5 0 11 18 15 40 4 22 11 40 16
40 5 0 9 5 9 10 0 14 -16 13 -28 -2z"/>
<path d="M1856 1098 c3 -4 17 -8 32 -8 15 0 40 -7 56 -15 24 -13 27 -13 16 -1
-20 25 -118 47 -104 24z"/>
<path d="M610 1090 c0 -12 34 -31 80 -46 19 -6 34 -16 32 -23 -1 -7 1 -10 6
-7 4 2 9 -13 9 -35 2 -39 1 -39 -20 -24 -24 17 -97 20 -97 4 0 -5 -5 -7 -12
-3 -8 5 -4 13 11 26 27 21 15 24 -13 3 -10 -7 -15 -18 -12 -23 3 -6 0 -13 -6
-15 -8 -3 -6 -6 5 -6 10 -1 15 -6 12 -11 -4 -6 -10 -8 -15 -5 -4 3 -6 -4 -3
-14 3 -13 -1 -20 -13 -23 -16 -3 -16 -4 -1 -16 14 -12 18 -9 31 17 9 16 16 37
16 46 0 10 10 15 33 15 50 0 63 -13 49 -45 -9 -19 -9 -24 -1 -19 7 4 10 1 7
-7 -3 -9 -19 -14 -44 -14 -29 0 -39 -4 -42 -17 -2 -10 1 -18 7 -18 6 0 11 5
11 10 0 6 11 10 25 10 24 0 24 -1 20 -77 -4 -65 -3 -75 7 -58 7 11 13 43 15
70 1 28 5 64 9 80 4 17 7 40 7 51 -1 14 5 21 15 20 12 -2 15 -17 13 -81 -1
-44 -5 -83 -8 -89 -3 -5 -1 -6 5 -2 7 4 17 16 23 28 8 16 8 19 -1 13 -10 -6
-11 8 -8 59 6 76 11 84 35 65 11 -9 14 -10 9 -2 -4 7 -16 18 -28 24 -15 8 -19
8 -14 0 4 -6 3 -11 -2 -11 -14 0 -22 53 -11 66 10 13 -49 64 -74 64 -8 0 -20
7 -27 15 -14 17 -40 20 -40 5z"/>
<path d="M535 1060 c-3 -11 -11 -20 -16 -20 -5 0 -9 -4 -9 -10 0 -5 -19 -28
-41 -52 -52 -54 -74 -87 -64 -96 4 -4 12 2 19 13 18 31 107 115 122 115 4 0 3
-15 0 -34 -5 -23 -3 -36 6 -39 10 -4 10 -6 1 -6 -7 -1 -13 -9 -13 -18 1 -16 2
-16 12 2 15 25 17 75 4 97 -7 11 -6 24 2 42 9 21 9 26 -3 26 -7 0 -17 -9 -20
-20z"/>
<path d="M1139 1060 c-3 -9 -16 -14 -32 -12 -29 2 -35 -9 -14 -25 18 -15 57
-23 57 -12 0 34 66 -24 83 -73 4 -10 10 -18 15 -18 14 0 64 99 59 118 -2 11
-8 2 -15 -23 -18 -61 -25 -68 -48 -49 -10 8 -12 12 -4 8 13 -7 13 -6 0 12 -24
30 -43 43 -67 44 -15 0 -23 7 -25 23 -2 15 -5 18 -9 7z"/>
<path d="M1655 1014 c23 -54 20 -67 -12 -61 -26 5 -26 4 -9 -9 15 -10 20 -27
20 -69 l1 -55 -35 6 c-19 4 -37 7 -40 7 -3 1 -22 -2 -42 -6 -39 -8 -49 -21
-23 -31 8 -3 15 -2 15 3 0 4 24 7 53 5 69 -3 67 -3 67 -13 0 -4 -12 -7 -27 -5
l-28 4 27 -9 c14 -5 32 -12 39 -16 9 -6 11 -2 7 13 -4 12 -2 25 3 28 5 3 9 -3
9 -13 1 -12 5 -8 14 12 7 17 10 32 6 35 -27 19 -35 90 -10 90 9 0 40 -73 40
-95 0 -7 9 -29 19 -47 11 -18 23 -52 27 -75 6 -36 4 -43 -10 -43 -10 0 -14 -5
-11 -11 4 -6 13 -8 21 -5 8 3 13 2 12 -2 0 -4 7 -25 17 -47 11 -26 16 -55 13
-86 -3 -28 0 -56 8 -70 12 -21 13 -14 8 56 -7 119 -7 120 -17 126 -4 3 -10 15
-12 25 -2 10 -4 19 -6 19 -1 0 -3 19 -4 42 -4 51 -72 217 -97 233 -4 3 -9 27
-10 53 -3 41 -6 47 -26 47 -22 0 -22 -1 -7 -36z"/>
<path d="M1991 1015 c1 -16 5 -41 9 -55 l8 -25 1 25 c1 20 3 22 11 10 9 -13
10 -13 10 0 0 8 -9 29 -20 45 l-20 30 1 -30z"/>
<path d="M1352 1017 c-9 -11 -2 -13 36 -11 64 3 62 3 62 14 0 15 -86 12 -98
-3z"/>
<path d="M1473 1013 c-3 -10 -15 -29 -27 -43 -20 -23 -20 -23 -1 -10 11 8 26
21 33 28 8 7 18 10 23 7 5 -4 9 -2 9 3 0 5 13 8 28 7 18 -1 29 3 29 12 0 21
-86 17 -94 -4z"/>
<path d="M1150 981 c0 -4 13 -24 30 -42 21 -24 31 -49 36 -86 8 -68 1 -87 -18
-42 -15 34 -17 35 -54 30 l-39 -6 36 -3 c32 -3 36 -6 32 -25 -4 -18 -3 -19 6
-7 9 13 11 11 11 -7 0 -12 4 -24 9 -27 5 -4 13 -61 17 -129 6 -88 10 -111 14
-82 6 35 7 37 13 15 8 -34 6 -64 -5 -71 -5 -3 -1 -8 9 -11 18 -5 19 -1 11 56
-5 33 -6 66 -3 73 2 7 0 13 -6 13 -6 0 -8 9 -4 21 5 15 4 19 -4 15 -8 -5 -11
25 -11 102 0 102 1 111 23 125 18 13 19 16 5 16 -10 1 -18 -4 -18 -10 0 -21
-26 9 -45 51 -16 35 -45 55 -45 31z"/>
<path d="M1730 965 c0 -30 23 -85 35 -85 17 0 23 -8 29 -43 2 -15 7 -31 11
-37 7 -12 11 -29 31 -140 9 -47 18 -87 21 -90 9 -8 -6 185 -18 221 -28 89 -42
119 -55 119 -8 0 -23 15 -34 33 -11 17 -20 28 -20 22z"/>
<path d="M1033 943 c3 -5 -9 -9 -26 -10 -17 -1 -35 -7 -41 -13 -5 -5 -18 -10
-28 -10 -10 0 -18 -4 -18 -9 0 -10 -36 -7 -72 8 -38 14 -35 5 5 -16 32 -17 47
-18 77 -6 8 4 23 7 33 8 9 2 18 3 20 5 1 1 9 3 18 5 9 1 27 6 39 10 16 5 20 4
15 -5 -6 -9 -3 -9 14 -1 19 11 25 8 22 -11 0 -5 5 -8 13 -8 8 0 18 -5 22 -12
5 -7 2 -8 -7 -3 -11 6 -12 5 -1 -6 9 -10 15 -10 24 -1 12 12 -14 39 -66 69
-23 14 -50 17 -43 6z"/>
<path d="M1289 928 c-1 -2 -3 -12 -5 -23 -1 -11 -6 -29 -9 -41 -4 -12 -1 -25
7 -31 10 -9 13 -1 14 43 1 46 -1 63 -7 52z"/>
<path d="M462 876 c10 -7 17 -15 15 -17 -1 -2 2 -1 8 3 5 5 19 8 32 8 20 0 23
-5 24 -37 l1 -38 8 35 c12 47 -8 69 -44 52 -16 -7 -28 -8 -31 -2 -4 6 -12 10
-18 10 -7 0 -4 -6 5 -14z"/>
<path d="M385 840 c-4 -16 -18 -39 -33 -50 -14 -12 -27 -28 -28 -36 -3 -21 58
45 74 79 14 33 15 37 3 37 -5 0 -12 -13 -16 -30z"/>
<path d="M585 821 c3 -17 1 -31 -4 -31 -5 0 -7 -9 -4 -20 3 -11 9 -20 14 -20
5 0 9 -13 9 -28 0 -16 3 -32 7 -35 3 -4 8 -22 9 -39 2 -18 6 -58 9 -87 3 -30
3 -52 0 -49 -7 6 -14 41 -17 80 -2 22 -5 25 -17 15 -12 -10 -14 -9 -8 6 4 9 2
17 -4 17 -6 0 -9 9 -6 20 3 10 -1 24 -9 31 -9 7 -14 8 -14 1 0 -6 6 -13 13
-15 9 -4 9 -6 0 -6 -7 -1 -10 -8 -6 -18 5 -15 3 -16 -8 -5 -29 26 -25 10 4
-21 18 -18 35 -31 39 -29 4 2 5 -3 3 -11 -10 -26 23 -84 54 -95 24 -9 29 -8
24 3 -2 8 -10 13 -16 12 -5 -1 -13 13 -17 31 -4 17 -4 32 1 32 5 0 9 -11 9
-25 0 -14 5 -25 11 -25 7 0 8 13 4 38 -8 52 -8 49 0 130 l8 72 -27 0 c-16 0
-26 -5 -26 -15 0 -8 6 -12 14 -9 17 7 30 -12 20 -28 -4 -7 -7 -31 -5 -55 1
-26 -2 -43 -8 -43 -6 0 -11 21 -11 50 0 28 -4 50 -9 50 -11 0 -23 74 -15 94 4
9 18 16 34 16 16 0 31 4 35 9 3 6 -8 8 -28 4 -24 -3 -38 0 -51 12 -16 16 -16
15 -11 -14z"/>
<path d="M1317 815 c-3 -6 10 -10 32 -9 113 3 134 5 127 11 -11 11 -155 10
-159 -2z"/>
<path d="M1268 790 c-3 -19 -3 -55 1 -80 7 -52 -16 -48 216 -37 77 4 164 7
193 7 33 0 51 4 47 10 -4 6 -11 8 -16 5 -5 -4 -9 -1 -9 4 0 6 6 11 14 11 17 0
28 50 15 70 -8 11 -9 10 -4 -7 3 -12 1 -25 -6 -29 -7 -4 -9 -3 -5 4 3 6 1 14
-5 18 -8 4 -9 3 -5 -4 4 -7 2 -12 -5 -12 -8 0 -7 -5 2 -17 8 -9 9 -14 2 -10
-7 4 -14 -1 -18 -13 -3 -11 -13 -20 -21 -20 -11 0 -15 9 -12 33 3 29 1 32 -27
34 -16 1 -22 -1 -12 -3 11 -4 17 -15 17 -35 0 -31 -9 -36 -28 -17 -9 9 -15 10
-20 2 -4 -6 -24 -11 -45 -12 -21 -1 -42 -4 -47 -7 -6 -4 -16 -3 -22 1 -15 10
-49 13 -44 5 2 -3 -30 -6 -71 -6 l-74 -1 4 51 c5 63 -7 107 -15 55z"/>
<path d="M409 772 c13 -25 31 -39 66 -52 29 -11 29 -11 10 10 -10 11 -24 19
-30 16 -7 -2 -12 2 -12 10 0 8 4 14 9 14 5 0 6 5 2 11 -4 8 -9 7 -16 -2 -7
-11 -11 -11 -15 -1 -2 6 -9 12 -14 12 -6 0 -6 -7 0 -18z"/>
<path d="M2210 745 c0 -8 -5 -15 -11 -15 -7 0 0 -11 14 -24 27 -25 57 -86 57
-116 0 -13 -6 -17 -20 -13 -11 3 -20 14 -20 24 0 21 -22 38 -28 21 -2 -7 -10
-12 -17 -12 -8 0 -20 -9 -27 -19 -7 -10 -24 -21 -38 -22 -13 -2 -36 -15 -50
-29 -14 -14 -31 -26 -38 -28 -19 -3 -77 -62 -62 -62 10 0 10 -4 -1 -18 -8 -10
3 0 24 23 26 26 37 33 33 20 -5 -15 -1 -13 15 8 11 15 26 27 33 27 7 0 21 9
31 20 10 12 24 19 31 16 7 -3 15 2 18 10 12 31 109 4 140 -38 l16 -23 -2 30
c-1 17 -5 35 -9 40 -4 6 -6 25 -5 44 2 23 -5 42 -21 61 -12 15 -19 31 -15 35
4 5 2 5 -5 2 -7 -5 -14 4 -18 23 -7 31 -25 42 -25 15z"/>
<path d="M352 702 c-9 -3 -8 -7 2 -18 8 -8 17 -14 21 -14 4 0 13 -7 22 -15 8
-8 19 -13 24 -10 5 4 9 2 9 -3 0 -5 12 -12 28 -15 15 -3 37 -8 50 -12 12 -4
22 -3 22 2 0 9 -30 21 -95 38 -11 2 -31 15 -45 28 -14 13 -31 22 -38 19z"/>
<path d="M920 700 c-8 -5 -26 -10 -40 -10 -14 0 -32 -5 -40 -10 -11 -8 -8 -9
15 -6 17 2 92 5 168 5 76 1 136 5 133 9 -3 5 -18 7 -34 4 -16 -2 -33 1 -36 7
-5 7 -15 7 -31 1 -16 -6 -25 -6 -25 0 0 6 -7 10 -15 10 -8 0 -15 -5 -15 -11 0
-11 -15 -9 -50 5 -8 3 -22 1 -30 -4z"/>
<path d="M310 694 c-20 -6 -39 -49 -30 -65 6 -8 15 2 29 29 12 23 20 41 19 41
-2 -1 -10 -3 -18 -5z"/>
<path d="M795 670 c-4 -6 -10 -8 -15 -5 -5 3 -11 1 -15 -4 -3 -6 -11 -8 -18
-5 -8 3 -12 -7 -13 -27 -1 -32 -1 -32 15 -10 9 12 30 31 46 41 17 11 25 20 18
20 -6 0 -15 -5 -18 -10z"/>
<path d="M2468 663 c-19 -20 -10 -47 13 -41 10 2 13 12 9 32 -5 27 -6 28 -22
9z"/>
<path d="M2383 642 c-6 -11 -8 -23 -3 -28 4 -5 11 -31 14 -59 10 -96 37 -270
45 -290 5 -11 14 -32 21 -47 10 -20 10 -34 1 -59 -15 -44 -14 -69 4 -69 8 0
15 6 16 13 1 19 28 -46 29 -70 0 -12 -6 -24 -12 -26 -7 -3 1 -6 18 -6 36 -1
48 7 34 24 -5 6 -11 20 -13 31 -2 10 -10 33 -17 49 -7 17 -14 46 -17 65 -2 19
-9 53 -15 75 -7 22 -11 43 -10 48 1 4 -3 7 -9 7 -6 0 -9 6 -6 13 3 7 -1 36 -8
64 -7 28 -16 75 -20 105 -3 29 -10 67 -15 83 -5 17 -12 45 -17 63 -7 30 -9 31
-20 14z"/>
<path d="M1720 568 c0 -11 -7 -16 -20 -15 -11 1 -20 4 -20 7 0 3 -25 5 -55 5
-30 0 -55 -2 -55 -5 0 -5 -84 -11 -172 -14 -21 -1 -38 -4 -38 -7 0 -3 -11 -5
-25 -4 -14 2 -25 -1 -25 -7 0 -7 29 -8 88 -3 102 10 364 7 372 -3 3 -4 13 -13
23 -21 15 -12 17 -11 17 4 0 10 -3 16 -6 12 -9 -8 -33 16 -26 27 3 5 -1 6 -8
1 -8 -5 -19 1 -31 16 -15 19 -19 20 -19 7z"/>
<path d="M1004 562 c8 -13 -38 -24 -69 -16 -15 4 -25 2 -25 -5 0 -6 19 -11 48
-11 81 0 212 13 212 20 0 4 -29 6 -65 4 -37 -2 -75 1 -87 7 -12 6 -18 7 -14 1z"/>
<path d="M261 525 c-1 -22 -8 -52 -15 -67 -9 -16 -11 -30 -5 -33 5 -4 9 0 9 7
0 8 9 31 20 53 11 21 16 41 11 44 -4 4 -11 13 -14 21 -3 8 -6 -3 -6 -25z"/>
<path d="M335 539 c-27 -6 -26 -7 12 -8 23 0 45 -5 48 -11 7 -12 45 -14 45 -2
0 13 -73 28 -105 21z"/>
<path d="M835 524 l-30 -15 34 6 c18 3 37 5 42 5 5 0 9 5 9 10 0 14 -19 11
-55 -6z"/>
<path d="M443 505 c-8 -9 -3 -15 23 -25 19 -8 34 -16 34 -19 0 -4 10 -12 23
-20 21 -13 21 -13 -2 13 -13 14 -33 28 -43 32 -10 3 -16 9 -13 14 9 14 -9 19
-22 5z"/>
<path d="M500 502 c0 -9 66 -32 91 -32 18 0 -29 25 -64 34 -15 3 -27 3 -27 -2z"/>
<path d="M723 485 c-7 -7 -17 -15 -24 -17 -8 -3 -9 -15 -4 -37 8 -39 19 -31
34 23 12 45 11 49 -6 31z"/>
<path d="M2296 462 c-3 -5 -20 -9 -37 -10 -17 0 -37 -6 -42 -11 -6 -6 -21 -11
-34 -11 -31 0 -128 -48 -186 -93 -66 -50 -49 -47 32 6 64 43 116 64 156 66 69
3 98 -1 120 -15 24 -15 25 -15 25 4 0 26 -26 76 -34 64z"/>
<path d="M1351 394 c-1 -14 -7 -21 -17 -20 -9 0 -19 -4 -21 -11 -3 -8 7 -8 39
-1 43 10 346 17 351 8 1 -3 16 -16 32 -30 26 -22 28 -22 11 -2 -23 27 -11 28
31 3 20 -13 42 -42 62 -83 30 -60 32 -55 11 29 -7 26 -5 35 8 43 9 5 12 10 5
10 -6 0 -19 -8 -29 -17 -17 -17 -17 -17 -12 5 4 13 2 20 -3 16 -16 -9 -36 14
-34 39 1 12 0 14 -2 5 -3 -14 -11 -16 -36 -12 -18 3 -79 9 -137 13 -58 4 -111
10 -117 14 -6 4 -13 2 -15 -4 -2 -7 -12 -7 -30 0 -17 6 -29 7 -33 1 -9 -14
-52 -12 -58 3 -3 6 -6 2 -6 -9z"/>
<path d="M1110 390 c0 -9 -13 -11 -45 -8 -25 3 -48 2 -51 -3 -3 -5 -10 -7 -15
-4 -5 4 -9 1 -9 -5 0 -7 7 -9 16 -6 9 3 57 6 107 6 69 1 88 3 74 11 -10 6 -25
8 -34 5 -8 -4 -22 -1 -29 5 -11 9 -14 8 -14 -1z"/>
<path d="M678 381 c1 -2 -4 -14 -11 -25 -12 -18 -12 -27 -1 -56 l14 -35 -6 42
c-4 33 -2 42 11 45 13 2 14 6 3 18 -7 8 -12 13 -10 11z"/>
<path d="M379 376 c-2 -2 -26 -6 -53 -9 -78 -10 -65 -15 34 -15 55 0 96 -4
103 -11 6 -6 23 -11 38 -11 15 0 31 -4 34 -10 3 -5 21 -10 40 -10 19 0 37 -5
40 -10 4 -6 11 -7 17 -4 14 9 -19 27 -56 30 -16 2 -33 7 -39 13 -6 6 -24 11
-39 11 -15 0 -28 4 -28 8 0 5 -12 9 -27 9 -16 0 -35 3 -44 7 -8 4 -17 5 -20 2z"/>
<path d="M927 369 c-27 -4 -52 -11 -55 -14 -7 -7 100 4 107 11 10 9 -7 10 -52
3z"/>
<path d="M2192 353 c-12 -2 -20 -8 -17 -13 3 -4 14 -6 25 -3 11 3 20 1 20 -5
0 -5 24 -20 53 -32 28 -12 62 -31 75 -43 l22 -20 0 20 c0 11 -7 34 -15 49 -8
16 -15 25 -15 20 0 -5 -9 -1 -20 9 -19 18 -86 27 -128 18z"/>
<path d="M227 343 c-2 -4 -8 -23 -12 -42 l-7 -35 -24 40 -24 39 6 -35 c4 -19
11 -36 16 -38 4 -2 8 -25 8 -51 0 -26 5 -52 12 -59 6 -6 12 -24 13 -39 4 -98
13 -125 37 -106 7 6 37 16 66 23 37 8 50 16 43 23 -7 7 -21 4 -46 -7 -20 -10
-39 -15 -42 -12 -4 3 -12 1 -20 -5 -7 -6 -13 -8 -14 -3 0 5 -2 29 -3 54 -2 25
-5 51 -7 59 -5 16 27 28 132 46 76 13 77 13 175 -20 55 -18 100 -32 102 -30 7
7 -117 60 -146 62 -18 1 -53 13 -78 27 -34 19 -44 21 -44 10 0 -8 8 -18 17
-21 12 -5 -4 -12 -47 -20 -88 -19 -119 -22 -124 -15 -2 4 2 41 9 82 12 71 13
91 2 73z"/>
<path d="M708 315 c2 -14 8 -25 12 -25 14 0 19 27 7 39 -18 18 -25 13 -19 -14z"/>
<path d="M1252 285 c1 -19 6 -35 10 -35 4 0 8 16 8 35 0 19 -5 35 -10 35 -6 0
-10 -16 -8 -35z"/>
<path d="M2130 301 c-25 -11 -48 -17 -52 -15 -7 5 -88 -42 -88 -50 0 -3 13 2
29 10 16 8 66 28 112 44 46 16 75 29 64 29 -11 0 -40 -8 -65 -18z"/>
<path d="M1302 245 c2 -25 7 -45 12 -45 4 0 6 10 3 22 -4 12 -1 28 5 35 7 9 7
13 -1 13 -7 0 -9 5 -6 10 3 6 1 10 -5 10 -7 0 -10 -17 -8 -45z"/>
<path d="M2092 235 c-59 -14 -86 -32 -35 -22 137 26 190 19 245 -36 26 -25 88
-33 88 -11 0 15 -38 44 -58 44 -7 0 -22 9 -34 20 -18 16 -35 20 -87 19 -36 -1
-90 -7 -119 -14z"/>
<path d="M1134 231 c3 -5 -33 -12 -79 -16 -47 -4 -98 -11 -113 -16 -17 -6 -2
-6 43 -1 39 4 98 7 133 7 62 0 76 11 33 26 -12 5 -20 5 -17 0z"/>
<path d="M1257 233 c-4 -3 -7 -26 -7 -50 0 -31 6 -50 21 -66 20 -20 21 -20 11
-2 -6 11 -10 42 -10 69 0 49 -4 61 -15 49z"/>
<path d="M1334 186 c-3 -14 -10 -26 -15 -26 -12 0 -11 -32 2 -50 9 -13 10 -12
5 2 -3 10 2 34 10 54 8 20 13 38 10 41 -3 3 -8 -6 -12 -21z"/>
<path d="M1504 170 c-3 -2 -33 -3 -67 -2 -34 1 -69 -2 -77 -8 -10 -6 44 -9
160 -9 101 0 187 -4 203 -10 16 -6 47 -11 70 -11 24 0 53 -7 66 -17 23 -15 23
-17 6 -30 -11 -7 -26 -13 -36 -13 -9 0 -28 -9 -42 -20 -15 -12 -30 -21 -34
-22 -4 0 -17 -4 -28 -9 -18 -7 -18 -8 5 -8 14 -1 50 12 80 29 30 16 69 36 85
44 41 19 78 53 66 60 -5 3 -11 1 -13 -6 -6 -16 -79 -15 -133 1 -57 17 -87 24
-107 25 -10 0 -18 3 -18 6 0 6 -180 7 -186 0z"/>
<path d="M2087 170 c-51 -9 -58 -20 -14 -20 51 0 199 -71 199 -96 -1 -15 30
-44 39 -38 5 3 9 0 9 -5 0 -6 13 -11 29 -11 23 0 28 4 27 22 -1 19 -21 42 -66
76 -2 1 2 7 9 11 9 6 10 11 2 15 -6 4 -11 2 -11 -4 0 -7 -7 -9 -17 -6 -10 4 2
-13 26 -38 54 -55 51 -70 -2 -19 -39 37 -144 93 -175 93 -13 0 -14 2 -4 9 21
13 -6 19 -51 11z"/>
<path d="M2354 131 c10 -11 19 -31 20 -44 2 -37 16 -21 16 18 0 21 -6 35 -16
39 -29 11 -37 6 -20 -13z"/>
<path d="M2000 111 c61 -14 153 -50 162 -63 5 -7 13 -20 18 -29 5 -9 22 -16
37 -16 l27 0 -41 38 c-43 39 -112 66 -193 74 -41 4 -42 4 -10 -4z"/>
<path d="M368 75 c19 -14 29 -15 48 -6 20 9 26 8 30 -4 8 -19 36 -27 70 -19
26 7 25 8 -22 22 -27 7 -71 16 -99 19 -49 4 -50 4 -27 -12z"/>
<path d="M1258 83 c-9 -2 -15 -10 -12 -18 7 -17 41 -8 41 11 0 8 -3 13 -6 13
-3 -1 -14 -3 -23 -6z"/>
<path d="M1070 40 c-34 -7 -34 -7 13 -9 26 0 47 4 47 9 0 11 -8 11 -60 0z"/>
<path d="M1930 41 c0 -15 42 -41 65 -40 14 0 16 2 5 6 -8 3 -27 15 -42 25 -16
11 -28 15 -28 9z"/>
<path d="M2073 25 c12 -11 36 -21 52 -23 l30 -2 -32 16 c-18 9 -33 20 -33 25
0 4 -9 7 -19 6 -19 -1 -19 -2 2 -22z"/>
</g>
</svg>
